<svg width="89" height="89" viewBox="0 0 90 89" fill="none" xmlns="http://www.w3.org/2000/svg">
<path fill-rule="evenodd" clip-rule="evenodd" d="M6.6344 23.0323C6.25888 17.3995 12.3925 -4.80865e-06 37.0521 0C37.7713 6.23294 37.5723 7.07133 37.1144 8.99965C37.1048 9.04045 37.095 9.08173 37.085 9.12356C37.0636 9.21417 37.0196 9.29812 36.9452 9.35418C36.0852 10.0026 32.671 11.1406 32.671 11.1406C32.671 11.1406 34.5172 11.2255 35.9437 11.4364C36.2129 11.4762 36.3927 11.7298 36.3372 11.9961C34.2882 21.8199 18.6423 30.64 10.3897 28.9156C14.5519 19.9291 20.5176 15.3143 23.6578 12.8852C24.673 12.0999 25.3929 11.543 25.6611 11.1407C26.4956 9.88891 26.1982 8.54998 25.4108 7.7609C24.6234 6.97181 22.7657 7.18306 22.1562 7.51057C15.0991 11.3025 10.5236 17.6646 7.90779 21.302C7.41492 21.9873 6.99163 22.5759 6.6344 23.0323ZM4.95549 37.6604C5.49884 37.758 6.01871 37.3971 6.11662 36.8538C8.31188 24.6579 16.6232 15.1299 23.9115 10.8782C24.3886 10.5999 24.5501 9.98706 24.2719 9.51002C23.9936 9.03297 23.3808 8.87139 22.9037 9.14967C15.1711 13.6604 6.4589 23.6602 4.14787 36.4993C4.05009 37.0428 4.41197 37.5626 4.95549 37.6604ZM6.11662 36.8538L4.14787 36.4993L5.13225 36.676L6.11662 36.8538Z" fill="#D62B57"/>
<path fill-rule="evenodd" clip-rule="evenodd" d="M23.0323 82.4628C17.3995 82.8383 -4.80865e-06 76.7047 0 52.0451C6.23295 51.3259 7.07134 51.525 8.99966 51.9828C9.04045 51.9925 9.08173 52.0023 9.12356 52.0122C9.21417 52.0336 9.29812 52.0776 9.35418 52.152C10.0026 53.0121 11.1406 56.4263 11.1406 56.4263C11.1406 56.4263 11.2255 54.58 11.4364 53.1535C11.4762 52.8843 11.7298 52.7045 11.9961 52.7601C21.8199 54.809 30.64 70.4549 28.9156 78.7075C19.9291 74.5454 15.3143 68.5797 12.8852 65.4394C12.0999 64.4242 11.543 63.7043 11.1407 63.4361C9.88891 62.6016 8.54998 62.8991 7.7609 63.6864C6.97181 64.4738 7.18306 66.3315 7.51057 66.941C11.3025 73.9981 17.6646 78.5736 21.302 81.1894C21.9873 81.6823 22.5759 82.1056 23.0323 82.4628ZM37.6604 84.1417C37.758 83.5983 37.3971 83.0785 36.8538 82.9805C24.6579 80.7853 15.1299 72.474 10.8782 65.1856C10.5999 64.7086 9.98706 64.547 9.51002 64.8253C9.03297 65.1036 8.87139 65.7164 9.14967 66.1934C13.6604 73.9261 23.6602 82.6383 36.4993 84.9493C37.0428 85.0471 37.5626 84.6852 37.6604 84.1417ZM36.8538 82.9805L36.4993 84.9493L36.676 83.9649L36.8538 82.9805Z" fill="#D62B57"/>
<path fill-rule="evenodd" clip-rule="evenodd" d="M66.9677 5.88332C72.6005 5.50779 90 11.6414 90 36.301C83.7671 37.0202 82.9287 36.8212 81.0003 36.3634C80.9595 36.3537 80.9183 36.3439 80.8764 36.334C80.7858 36.3125 80.7019 36.2685 80.6458 36.1941C79.9974 35.3341 78.8594 31.9199 78.8594 31.9199C78.8594 31.9199 78.7745 33.7661 78.5636 35.1927C78.5238 35.4618 78.2702 35.6416 78.0039 35.5861C68.1801 33.5371 59.36 17.8912 61.0844 9.63859C70.0709 13.8008 74.6857 19.7665 77.1148 22.9067C77.9001 23.9219 78.457 24.6418 78.8593 24.91C80.1111 25.7445 81.45 25.4471 82.2391 24.6597C83.0282 23.8723 82.8169 22.0146 82.4894 21.4051C78.6975 14.348 72.3354 9.77255 68.698 7.1567C68.0127 6.66384 67.4241 6.24054 66.9677 5.88332ZM52.3396 4.20445C52.242 4.7478 52.6029 5.26767 53.1462 5.36558C65.3421 7.56084 74.8701 15.8721 79.1218 23.1605L79.1785 23.2464C79.4768 23.6561 80.0428 23.7817 80.49 23.5209C80.9373 23.2599 81.1072 22.7049 80.8972 22.2435L80.8503 22.1527C76.3396 14.4201 66.3398 5.70786 53.5007 3.39683C52.9572 3.29906 52.4374 3.66093 52.3396 4.20445ZM53.1462 5.36558L53.5007 3.39683L53.324 4.38121L53.1462 5.36558Z" fill="#D62B57"/>
<path fill-rule="evenodd" clip-rule="evenodd" d="M83.4642 65.9663C83.8398 71.5991 77.7061 88.9986 53.0465 88.9986C52.3273 82.7657 52.5264 81.9273 52.9842 79.9989C52.9939 79.9581 53.0037 79.9169 53.0136 79.875C53.035 79.7844 53.0791 79.7005 53.1534 79.6444C54.0135 78.996 57.4277 77.858 57.4277 77.858C57.4277 77.858 55.5815 77.7731 54.1549 77.5622C53.8857 77.5224 53.7059 77.2688 53.7615 77.0025C55.8104 67.1787 71.4564 58.3585 79.709 60.083C75.5468 69.0695 69.5811 73.6843 66.4408 76.1134C65.4256 76.8987 64.7057 77.4556 64.4375 77.8579C63.603 79.1097 63.9005 80.4486 64.6879 81.2377C65.4752 82.0268 67.3329 81.8155 67.9424 81.488C74.9995 77.6961 79.575 71.334 82.1908 67.6966C82.6837 67.0113 83.107 66.4227 83.4642 65.9663ZM85.1431 51.3382C84.5998 51.2406 84.0799 51.6015 83.982 52.1448C81.7868 64.3407 73.4754 73.8687 66.1871 78.1204L66.1012 78.1771C65.6915 78.4754 65.5659 79.0414 65.8267 79.4886C66.0877 79.9359 66.6427 80.1058 67.1041 79.8958L67.1949 79.8489C74.9275 75.3382 83.6397 65.3384 85.9508 52.4993C86.0485 51.9558 85.6867 51.436 85.1431 51.3382ZM83.982 52.1448L85.9508 52.4993L84.9664 52.3226L83.982 52.1448Z" fill="#D62B57"/>
</svg>
