<svg width="82" height="88" viewBox="0 0 82 88" fill="none" xmlns="http://www.w3.org/2000/svg">
<path fill-rule="evenodd" clip-rule="evenodd" d="M2.63444 23.0323C2.25891 17.3995 8.39253 -4.80865e-06 33.0522 0C33.7713 6.23294 33.5723 7.07133 33.1145 8.99965C33.1048 9.04045 33.095 9.08173 33.0851 9.12356C33.0636 9.21417 33.0196 9.29812 32.9453 9.35418C32.0852 10.0026 28.671 11.1406 28.671 11.1406C28.671 11.1406 30.5172 11.2255 31.9438 11.4364C32.2129 11.4762 32.3928 11.7298 32.3372 11.9961C30.2882 21.8199 14.6423 30.64 6.38972 28.9156C10.5519 19.9291 16.5176 15.3143 19.6579 12.8852C20.673 12.0999 21.393 11.543 21.6612 11.1407C22.4957 9.88891 22.1982 8.54998 21.4108 7.7609C20.6234 6.97181 18.7658 7.18306 18.1562 7.51057C11.0991 11.3025 6.52368 17.6646 3.90783 21.302C3.41496 21.9873 2.99166 22.5759 2.63444 23.0323ZM0.955526 37.6604C1.49888 37.758 2.01874 37.3971 2.11666 36.8538C4.31191 24.6579 12.6232 15.1299 19.9116 10.8782C20.3886 10.5999 20.5502 9.98706 20.2719 9.51002C19.9937 9.03297 19.3808 8.87139 18.9038 9.14967C11.1711 13.6604 2.45894 23.6602 0.147909 36.4993C0.0501316 37.0428 0.41201 37.5626 0.955526 37.6604ZM2.11666 36.8538L0.147909 36.4993L1.13228 36.676L2.11666 36.8538Z" fill="#D62B57"/>
<path fill-rule="evenodd" clip-rule="evenodd" d="M79.4642 64.9663C79.8397 70.5991 73.7061 87.9986 49.0465 87.9986C48.3273 81.7657 48.5263 80.9273 48.9841 78.9989C48.9938 78.9581 49.0036 78.9169 49.0135 78.875C49.035 78.7844 49.079 78.7005 49.1534 78.6444C50.0134 77.996 53.4276 76.858 53.4276 76.858C53.4276 76.858 51.5814 76.7731 50.1548 76.5622C49.8857 76.5224 49.7059 76.2688 49.7614 76.0025C51.8104 66.1787 67.4563 57.3585 75.7089 59.083C71.5467 68.0695 65.581 72.6843 62.4408 75.1134C61.4256 75.8987 60.7057 76.4556 60.4375 76.8579C59.603 78.1097 59.9004 79.4486 60.6878 80.2377C61.4752 81.0268 63.3329 80.8155 63.9424 80.488C70.9995 76.6961 75.575 70.334 78.1908 66.6966C78.6837 66.0113 79.107 65.4227 79.4642 64.9663ZM81.1431 50.3382C80.5998 50.2406 80.0799 50.6015 79.982 51.1448C77.7867 63.3407 69.4754 72.8687 62.1871 77.1204L62.1011 77.1771C61.6914 77.4754 61.5659 78.0414 61.8267 78.4886C62.0876 78.9359 62.6426 79.1058 63.104 78.8958L63.1949 78.8489C70.9275 74.3382 79.6397 64.3384 81.9507 51.4993C82.0485 50.9558 81.6866 50.436 81.1431 50.3382ZM79.982 51.1448L81.9507 51.4993L80.9663 51.3226L79.982 51.1448Z" fill="#D62B57"/>
</svg>
