<svg width="74" height="80" viewBox="0 0 74 80" fill="none" xmlns="http://www.w3.org/2000/svg">
<path fill-rule="evenodd" clip-rule="evenodd" d="M2.63444 23.0323C2.25891 17.3995 8.39253 -4.80865e-06 33.0522 0C33.7713 6.23294 33.5723 7.07133 33.1145 8.99965C33.1048 9.04045 33.095 9.08173 33.0851 9.12356C33.0636 9.21417 33.0196 9.29812 32.9453 9.35418C32.0852 10.0026 28.671 11.1406 28.671 11.1406C28.671 11.1406 30.5172 11.2255 31.9438 11.4364C32.2129 11.4762 32.3928 11.7298 32.3372 11.9961C30.2882 21.8199 14.6423 30.64 6.38972 28.9156C10.5519 19.9291 16.5176 15.3143 19.6579 12.8852C20.673 12.0999 21.393 11.543 21.6612 11.1407C22.4957 9.88891 22.1982 8.54998 21.4108 7.7609C20.6234 6.97181 18.7658 7.18306 18.1562 7.51057C11.0991 11.3025 6.52368 17.6646 3.90783 21.302C3.41496 21.9873 2.99166 22.5759 2.63444 23.0323ZM0.955526 37.6604C1.49888 37.758 2.01874 37.3971 2.11666 36.8538C4.31191 24.6579 12.6232 15.1299 19.9116 10.8782C20.3886 10.5999 20.5502 9.98706 20.2719 9.51002C19.9937 9.03297 19.3808 8.87139 18.9038 9.14967C11.1711 13.6604 2.45894 23.6602 0.147909 36.4993C0.0501316 37.0428 0.41201 37.5626 0.955526 37.6604ZM2.11666 36.8538L0.147909 36.4993L1.13228 36.676L2.11666 36.8538Z" fill="#D62B57"/>
<path fill-rule="evenodd" clip-rule="evenodd" d="M71.4642 56.9663C71.8397 62.5991 65.7061 79.9986 41.0465 79.9986C40.3273 73.7657 40.5263 72.9273 40.9841 70.9989C40.9938 70.9581 41.0036 70.9169 41.0135 70.875C41.035 70.7844 41.079 70.7005 41.1534 70.6444C42.0134 69.996 45.4276 68.858 45.4276 68.858C45.4276 68.858 43.5814 68.7731 42.1548 68.5622C41.8857 68.5224 41.7059 68.2688 41.7614 68.0025C43.8104 58.1787 59.4563 49.3585 67.7089 51.083C63.5467 60.0695 57.581 64.6843 54.4408 67.1134C53.4256 67.8987 52.7057 68.4556 52.4375 68.8579C51.603 70.1097 51.9004 71.4486 52.6878 72.2377C53.4752 73.0268 55.3329 72.8155 55.9424 72.488C62.9995 68.6961 67.575 62.334 70.1908 58.6966C70.6837 58.0113 71.107 57.4227 71.4642 56.9663ZM73.1431 42.3382C72.5998 42.2406 72.0799 42.6015 71.982 43.1448C69.7867 55.3407 61.4754 64.8687 54.1871 69.1204L54.1011 69.1771C53.6914 69.4754 53.5659 70.0414 53.8267 70.4886C54.0876 70.9359 54.6426 71.1058 55.104 70.8958L55.1949 70.8489C62.9275 66.3382 71.6397 56.3384 73.9507 43.4993C74.0485 42.9558 73.6866 42.436 73.1431 42.3382ZM71.982 43.1448L73.9507 43.4993L72.9663 43.3226L71.982 43.1448Z" fill="#D62B57"/>
</svg>
