<svg width="132" height="150" viewBox="0 0 132 150" fill="none" xmlns="http://www.w3.org/2000/svg">
<path fill-rule="evenodd" clip-rule="evenodd" d="M8.49994 92.4998C6.99994 70 31.4999 0.499859 130 0.499878C132.873 25.3966 132.078 28.7455 130.249 36.4479C130.21 36.6109 130.171 36.7758 130.132 36.9429C130.046 37.3048 129.87 37.6402 129.573 37.864C126.138 40.454 112.5 44.9999 112.5 44.9999C112.5 44.9999 119.874 45.3387 125.573 46.1813C126.648 46.3402 127.366 47.3532 127.144 48.417C118.96 87.6568 56.464 122.888 23.4999 116C40.1253 80.1044 63.9546 61.6712 76.498 51.9682C80.553 48.8314 83.4286 46.607 84.5 45C87.8333 40 86.6451 34.6518 83.4999 31.4999C80.3548 28.348 72.9347 29.1918 70.5 30.5C42.3112 45.6462 24.035 71.0592 13.5863 85.5881C11.6176 88.3255 9.92683 90.6766 8.49994 92.4998ZM76.7596 42.6594C77.9522 41.9637 78.3551 40.433 77.6594 39.2403C76.9637 38.0477 75.4329 37.6449 74.2403 38.3406C43.685 56.1644 9.18415 95.7534 0.0394818 146.557C-0.205115 147.916 0.698184 149.216 2.05706 149.46C3.41593 149.705 4.7158 148.802 4.9604 147.443C13.8157 98.2466 47.3149 59.8356 76.7596 42.6594Z" fill="url(#paint0_linear_1_63)"/>
<defs>
<linearGradient id="paint0_linear_1_63" x1="142" y1="-20.9282" x2="-172.786" y2="345.887" gradientUnits="userSpaceOnUse">
<stop stop-color="#D62B57"/>
<stop offset="1" stop-color="#F2AF29"/>
</linearGradient>
</defs>
</svg>
